<svg xmlns="http://www.w3.org/2000/svg" viewBox="0 0 1290 720"><defs><style>.cls-1{fill:#f2f2f2;}</style></defs><title>Asset 1</title><g id="Layer_2" data-name="Layer 2"><g id="Layer_1-2" data-name="Layer 1"><rect width="1290" height="720"/><path class="cls-1" d="M926.05,366H818.2v36.6a333.41,333.41,0,0,0,70.27-7.8c1,18.05.49,46.36-4.88,69.78-22,9.27-47.82,11.71-69.79,11.71-71.25,0-95.65-40-95.65-113.21,0-34.65,4.4-73.21,22-109.81A211.1,211.1,0,0,1,808,241.51c60,0,77.11,15.13,77.11,66.37h41c2.93-71.25-37.09-100-111.27-100-94.19,0-136.64,57.58-136.64,162.51,0,106.87,49.29,140.54,129.81,140.54,76.13,0,120-36.6,120-109.8C928,388.89,927.51,376.2,926.05,366Z"/><path class="cls-1" d="M589.29,328.67c32.85-1.45,58.45-30,54.1-61.36-4.83-29-28.5-49.27-57-48.3-29,1-51.69,24.63-52.66,54.1v27.54H470.45a70.43,70.43,0,0,1-9.66-.49c0-13.52,0-16.42-.48-29-1.45-40.58-44.93-64.74-80.68-45.41-20.77,11.59-31.88,36.23-27.05,59.42,6.28,25.12,26.08,43,52.17,43.48,12.08.48,15,.48,27.54.48v72.94h-28.5c-33.34,1.45-58,32.37-51.21,64.74,5.8,28.5,30.43,46.86,58.93,44.44,27.54-2.9,48.8-25.6,49.28-54.59V430.6h72.94v27c1,35.26,33.82,60.87,68.12,52.17,26.09-6.76,44.44-32.37,41.54-58.45-3.38-28-25.12-48.31-53.13-49.28h-28V329.15C575.28,329.15,577.21,329.15,589.29,328.67ZM428.91,476.49q-6.53,7.25-23.19,7.24a71.87,71.87,0,0,1-10.15-.48,25.33,25.33,0,0,1-9.66-2.9c-2.9-3.86-4.35-8.69-5.31-13a64.17,64.17,0,0,1-1.45-13.53c0-8.69,1.93-15,6.76-20.29,4.35-4.83,11.6-7.24,22.71-7.24a71.8,71.8,0,0,1,10.14.48,76.6,76.6,0,0,1,10.15,2.42c2.41,4.83,4.34,9.17,4.83,14,.48,4.34,1.45,8.69,1.45,13C435.19,464.89,433.25,471.66,428.91,476.49Zm4.83-189.85c-.49,4.83-2.42,9.18-4.83,14a78.15,78.15,0,0,1-10.15,2.41,71.8,71.8,0,0,1-10.14.48c-11.11,0-18.36-2.41-22.71-7.24-4.83-5.32-6.76-11.6-6.76-20.29a64.17,64.17,0,0,1,1.45-13.53c1-4.35,2.41-9.18,5.31-13a25.33,25.33,0,0,1,9.66-2.9,71.87,71.87,0,0,1,10.15-.48q16.66,0,23.19,7.24c4.34,4.83,6.28,11.6,6.28,20.29C435.19,277.94,434.22,282.29,433.74,286.64Zm99.51,97.1,1.45,18.84c-6.28-.49-12.56-1-18.36-1.45-7.24-.49-13.52-.49-19.32-.49s-12.56,0-19.32.49c-5.8.48-12.56,1-18.36,1.45l1.45-18.84c.48-5.8.48-11.6.48-18.36,0-6.28,0-12.08-.48-17.87l-1.45-18.84c5.8.48,12.56.48,18.36,1,6.76.48,13.52,1,19.32,1s12.08-.49,19.32-1c5.8-.48,12.08-.48,18.36-1l-1.45,18.84c-.48,5.79-.48,11.59-.48,17.87C532.77,372.14,532.77,377.94,533.25,383.74Zm32.85,45.41a75.86,75.86,0,0,1,10.15-2.42,71.66,71.66,0,0,1,10.14-.48c11.11,0,18.36,2.41,22.71,7.24,4.83,5.32,6.76,11.6,6.76,20.29a64.17,64.17,0,0,1-1.45,13.53c-1,4.35-2.42,9.18-5.31,13a25.33,25.33,0,0,1-9.67,2.9,71.73,71.73,0,0,1-10.14.48q-16.66,0-23.19-7.24c-4.35-4.83-6.28-11.6-6.28-20.29,0-4.35,1-8.7,1.45-13C561.75,438.32,563.69,434,566.1,429.15Zm-4.83-142.51c-.48-4.35-1.45-8.7-1.45-13.05,0-8.69,1.93-15.46,6.28-20.29s12.08-7.24,23.19-7.24a71.73,71.73,0,0,1,10.14.48,25.33,25.33,0,0,1,9.67,2.9c2.89,3.86,4.34,8.69,5.31,13A64.17,64.17,0,0,1,615.86,276c0,8.69-1.93,15-6.76,20.29-4.35,4.83-11.6,7.24-22.71,7.24a71.66,71.66,0,0,1-10.14-.48,77.38,77.38,0,0,1-10.15-2.41C563.69,295.82,561.75,291.47,561.27,286.64Z"/></g></g></svg>