<?xml version="1.0" encoding="utf-8"?>
<!-- Generator: Adobe Illustrator 23.0.3, SVG Export Plug-In . SVG Version: 6.00 Build 0)  -->
<svg version="1.1" id="Layer_1" xmlns="http://www.w3.org/2000/svg" xmlns:xlink="http://www.w3.org/1999/xlink" x="0px" y="0px"
	 viewBox="0 0 1290 720" style="enable-background:new 0 0 1290 720;" xml:space="preserve">
<style type="text/css">
	.st0{fill:#F2F2F2;}
</style>
<title>Asset 1</title>
<g>
	<g id="Layer_1-2">
		<rect width="1290" height="720"/>
		<path class="st0" d="M962.5,366.9H840.9v41.3c26.6-0.1,53.2-3.1,79.3-8.8c1.1,20.3,0.6,52.3-5.5,78.7
			c-24.8,10.5-53.9,13.2-78.7,13.2c-80.3,0-107.9-45.1-107.9-127.6c0-39.1,5-82.5,24.8-123.8c24.6-8.6,50.5-13.1,76.5-13.3
			c67.6,0,86.9,17.1,86.9,74.8h46.3c3.3-80.3-41.8-112.7-125.4-112.7c-106.2,0-154,64.9-154,183.2c0,120.5,55.6,158.4,146.3,158.4
			c85.8,0,135.2-41.3,135.2-123.8C964.7,392.6,964.2,378.3,962.5,366.9z"/>
		<path class="st0" d="M582.9,324.7c37-1.6,65.9-33.9,60.9-69.1c-5.4-32.7-32.1-55.5-64.3-54.5c-32.7,1.1-58.3,27.8-59.3,60.9v31.1
			h-71.3c-3.6,0.1-7.2-0.1-10.9-0.6c0-15.3,0-18.5-0.6-32.7c-1.6-45.8-50.6-73-91-51.2c-23.5,13.1-36,40.8-30.5,67
			c7.1,28.3,29.4,48.4,58.8,49c13.6,0.6,16.9,0.6,31.1,0.6v82.2h-32.1c-37.6,1.6-65.4,36.5-57.7,73c6.6,32.1,34.3,52.8,66.5,50.1
			c31.1-3.2,55-28.9,55.5-61.5v-29.4h82.2v30.4c1.1,39.8,38.1,68.6,76.8,58.8c29.4-7.6,50.1-36.5,46.8-65.9
			c-3.8-31.6-28.3-54.5-59.9-55.5h-31.6v-82.2C567.1,325.3,569.2,325.3,582.9,324.7z M402,491.3c-4.9,5.4-13.6,8.2-26.1,8.2
			c-3.8,0.1-7.6-0.1-11.4-0.6c-3.8-0.4-7.5-1.4-10.9-3.2c-3.2-4.4-4.9-9.8-6-14.7c-1-5.1-1.6-10.1-1.6-15.3c0-9.8,2.2-16.9,7.6-22.9
			c4.9-5.4,13.1-8.2,25.6-8.2c3.8-0.1,7.6,0.1,11.4,0.6c3.9,0.7,7.7,1.5,11.4,2.8c2.7,5.4,4.9,10.3,5.4,15.7
			c0.6,4.9,1.6,9.8,1.6,14.7C409.2,478.2,407,485.9,402,491.3z M407.5,277.3c-0.6,5.4-2.8,10.4-5.4,15.7c-3.7,1.1-7.5,2.1-11.4,2.7
			c-3.8,0.5-7.6,0.7-11.4,0.6c-12.5,0-20.7-2.7-25.6-8.2c-5.4-6-7.6-13.1-7.6-22.9c0-5.2,0.6-10.2,1.6-15.3c1.1-4.9,2.7-10.4,6-14.7
			c3.3-1.8,7.1-3,10.9-3.2c3.8-0.5,7.6-0.7,11.4-0.6c12.5,0,21.3,2.8,26.1,8.2c4.9,5.4,7.1,13.1,7.1,22.9
			C409.2,267.6,408,272.4,407.5,277.3L407.5,277.3z M519.7,386.8l1.6,21.3c-7.1-0.6-14.1-1.1-20.7-1.6c-8.2-0.6-15.3-0.6-21.7-0.6
			c-6.6,0-14.1,0-21.7,0.6c-6.6,0.6-14.1,1.1-20.7,1.6l1.6-21.3c0.6-6.6,0.6-13.1,0.6-20.7c0-7.1,0-13.6-0.6-20.1l-1.6-21.3
			c6.6,0.6,14.1,0.6,20.7,1.1c7.6,0.6,15.3,1.1,21.7,1.1c6.6,0,13.6-0.6,21.7-1.1c6.6-0.6,13.6-0.6,20.7-1.1l-1.6,21.3
			c-0.6,6.5-0.6,13.1-0.6,20.1C519.1,373.7,519.1,380.3,519.7,386.8z M556.7,438c3.7-1.1,7.5-2.1,11.4-2.8c3.8-0.5,7.6-0.7,11.4-0.6
			c12.5,0,20.7,2.7,25.6,8.2c5.4,6,7.6,13.1,7.6,22.9c0,5.2-0.6,10.2-1.6,15.3c-1.1,4.9-2.8,10.4-6,14.7c-3.3,1.8-7.1,3-10.9,3.2
			c-3.8,0.5-7.6,0.7-11.4,0.6c-12.5,0-21.3-2.8-26.1-8.2c-4.9-5.4-7.1-13.1-7.1-22.9c0-4.9,1.1-9.8,1.6-14.7
			C551.9,448.3,554.1,443.4,556.7,438z M551.3,277.3c-0.6-4.9-1.6-9.8-1.6-14.7c0-9.8,2.2-17.5,7.1-22.9c4.9-5.4,13.6-8.2,26.1-8.2
			c3.8-0.1,7.6,0.1,11.4,0.6c3.8,0.4,7.5,1.4,10.9,3.2c3.2,4.4,4.9,9.8,6,14.7c1,5.1,1.6,10.1,1.6,15.3c0,9.8-2.2,16.9-7.6,22.9
			c-4.9,5.4-13.1,8.2-25.6,8.2c-3.8,0.1-7.6-0.1-11.4-0.6c-3.9-0.7-7.7-1.5-11.4-2.7C554.1,287.7,551.9,282.8,551.3,277.3
			L551.3,277.3z"/>
	</g>
</g>
</svg>
