<?xml version="1.0" encoding="utf-8"?>
<!-- Generator: Adobe Illustrator 23.0.3, SVG Export Plug-In . SVG Version: 6.00 Build 0)  -->
<svg version="1.1" id="Layer_1" xmlns="http://www.w3.org/2000/svg" xmlns:xlink="http://www.w3.org/1999/xlink" x="0px" y="0px"
	 viewBox="0 0 1290 720" style="enable-background:new 0 0 1290 720;" xml:space="preserve">
<style type="text/css">
	.st0{fill:#F2F2F2;}
</style>
<path d="M927,628.1H363c-5.5,0-10-4.5-10-10V569c0-5.5,4.5-10,10-10H927c5.5,0,10,4.5,10,10v49.1C937,623.6,932.5,628.1,927,628.1z"
	/>
<title>Asset 1</title>
<g>
	<path class="st0" d="M381.2,605.7L381.2,605.7l0-28.4h11.6c9.2,0,13.1,4.6,13.1,13.3c0,10-4.9,15.3-13.5,15.3
		C389.2,605.8,383.3,605.8,381.2,605.7z M398.1,600.8c1.3-2.7,2.1-6,2.1-9.6c0-6.8-1.9-9.3-9.3-9.3c-1.2,0-2.5,0-3.9,0.1v18.9
		c1.8,0.1,3.7,0.2,5.7,0.2C394,601.1,396.2,601,398.1,600.8z"/>
	<path class="st0" d="M412.7,605.7v-22.2h5.3v5.5c2.2-4.4,4.8-5.9,7.5-5.9v6.2c-2.8,0-5,1.1-6.8,2.7c-0.4,1.8-0.6,4-0.6,5.8v8.1
		H412.7z"/>
	<path class="st0" d="M442.8,602.1c-2.3,2.5-4.6,4.1-7.8,4.1c-3.4,0-6.2-1.6-6.2-6.2c0-3.6,1.8-6.3,7.8-6.3h5.9v-2.7
		c0-2.6-1-4-3.6-4c-0.9,0-2.2,0.1-3.3,0.3c-0.1,0.8-0.1,1.5-0.1,2.2v1h-5.5c0-0.3,0-0.6,0-0.9c0-4.5,3.3-6.8,9.4-6.8
		c5.6,0,8.6,2,8.6,6.9v10c0,1.2,0.2,1.8,1.5,1.8c0.4,0,0.9,0,1.3-0.1v4.3c-0.6,0.1-1.5,0.2-2.7,0.2
		C445.4,606.1,443.5,605.2,442.8,602.1z M442.1,600.5c0.4-1.5,0.6-3.1,0.6-4.9v-0.1c-2.1,1-5.8,0.9-8.1,1.4
		c-0.1,0.8-0.2,1.6-0.2,2.2c0,1.9,0.6,2.7,3.1,2.7C438.9,601.7,440.6,601.3,442.1,600.5z"/>
	<path class="st0" d="M453.6,610.6c0-2.3,1.5-4.1,3.5-5.2c-0.9-0.6-1.2-1.6-1.2-2.7c0-1.8,1.1-3.2,2.8-4.2c-2.7-1-4.2-3-4.2-6.5
		c0-5.9,3.6-9,10-9c2.2,0,4,0.3,5.4,0.9l3.1-4.4l3.6,3.2c-1.2,1.4-2.8,2.4-4.4,2.9c1.3,1.5,1.9,3.5,1.9,6.1c0,5-3.9,7.7-10.2,7.7
		c-1.7,0-2.8,0.1-3.6,0.2c-0.1,0.3-0.2,0.7-0.2,1.2c0,1.2,0.8,1.8,2.3,1.8h6.8c4.2,0,6.5,1.8,6.5,5.5c0,5-3,7.4-12.5,7.4
		C455.9,615.6,453.6,614,453.6,610.6z M471.2,610.9c0.1-0.4,0.2-0.8,0.2-1.1c0-2.4-0.6-3.4-6.4-3.4c-3.5,0-5.3,0.2-6.3,0.6
		c-0.2,0.4-0.4,1-0.4,1.7c0,1.7,1.1,2.8,5.7,2.8C466.2,611.5,469,611.4,471.2,610.9z M459.9,587.5c-0.2,1.2-0.3,2.3-0.3,3.4
		c0,2.8,0.8,4.9,4.7,4.9c1.8,0,3.4-0.1,4.8-0.5c0.1-1.1,0.1-2.2,0.1-3.2c0-2.9-0.8-5-5.2-5C462.5,587.1,461.1,587.2,459.9,587.5z"/>
	<path class="st0" d="M499.2,583.5h8.7v4.6c-2.8,0-6-0.2-8.7-0.9v10.7c0,2.2,0.4,3.7,2.9,3.7c0.6,0,1.2,0,1.7-0.1
		c0.4-1.1,0.5-2.5,0.5-3.4h4.8c0,5.3-2.3,8-8,8c-4.4,0-7.4-1.6-7.4-7.3v-11h-3.6v-4.4h3.6v-5.4h5.5V583.5z"/>
	<path class="st0" d="M523.9,582.9c6.6,0,10.7,2.7,10.7,11.3c0,7.4-3.6,12-10.8,12c-6.7,0-10.9-2.7-10.9-11.1
		C512.9,587.4,516.8,582.9,523.9,582.9z M519.2,588c-0.5,2.3-0.8,4.9-0.8,7c0,3.7,0.9,6.7,5.9,6.7c1.2,0,2.5-0.1,3.9-0.6
		c0.5-1.9,0.8-4,0.8-6.4c0-4.8-0.7-7.3-5.5-7.3C522.2,587.4,520.6,587.6,519.2,588z"/>
	<path class="st0" d="M557.4,605.7h-5.5v-22.2h5.5v4.5c2.6-2.9,5.1-4.9,8.6-4.9c2.5,0,4.9,1.5,5.5,5.1c2.7-2.9,5.2-5.1,8.7-5.1
		c2.8,0,5.6,1.9,5.6,6.6v16.1h-5.5v-14.3c0-2.2-0.9-3.3-3-3.3c-1.5,0-3.3,0.8-5.2,2.4c-0.4,1.5-0.5,3.2-0.5,4.9v10.3h-5.5v-14.3
		c0-2.2-1-3.3-3.1-3.3c-1.5,0-3.2,0.8-5.1,2.4c-0.5,1.5-0.5,3.1-0.5,4.9V605.7z"/>
	<path class="st0" d="M603,582.9c6.6,0,10.7,2.7,10.7,11.3c0,7.4-3.6,12-10.8,12c-6.7,0-10.9-2.7-10.9-11.1
		C592.1,587.4,596,582.9,603,582.9z M598.3,588c-0.5,2.3-0.8,4.9-0.8,7c0,3.7,0.9,6.7,5.9,6.7c1.2,0,2.5-0.1,3.9-0.6
		c0.5-1.9,0.8-4,0.8-6.4c0-4.8-0.7-7.3-5.5-7.3C601.3,587.4,599.7,587.6,598.3,588z"/>
	<path class="st0" d="M623.8,605.7l-7.2-22.2h6l2.4,8.5c0.9,3.2,1.7,6,2.2,9.1h1.8c0.6-3.1,1.2-6,2.1-9.1l2.4-8.5h5.9l-7.2,22.2
		H623.8z"/>
	<path class="st0" d="M656.8,601.4c0.1-0.8,0.1-1.6,0.2-2.3h5v0.6c0,4.6-2.8,6.6-9.1,6.6c-6.7,0-10.5-2.9-10.5-11.2
		c0-7.6,3.6-12.1,10.8-12.1c6.2,0,9.1,3.5,9.1,9.5c0,1-0.1,2.1-0.2,3.2h-14.2c0.2,3.6,1.3,6.3,5.6,6.3
		C654.7,601.9,655.9,601.7,656.8,601.4z M648.7,587.4c-0.7,2.1-0.9,4.4-0.9,6.4c2.8-0.8,5.9-1.2,9.2-1.3c0-4-1.2-5.5-4.6-5.5
		C651.1,587,649.9,587.1,648.7,587.4z"/>
	<path class="st0" d="M686.8,583.5h8.7v4.6c-2.8,0-6-0.2-8.7-0.9v10.7c0,2.2,0.4,3.7,2.9,3.7c0.6,0,1.2,0,1.7-0.1
		c0.4-1.1,0.5-2.5,0.5-3.4h4.8c0,5.3-2.3,8-8,8c-4.4,0-7.4-1.6-7.4-7.3v-11h-3.6v-4.4h3.6v-5.4h5.5V583.5z"/>
	<path class="st0" d="M707.4,605.7h-5.5v-31.8h5.5v14c2.6-2.9,5.1-4.9,8.6-4.9c2.8,0,5.6,1.9,5.6,6.6v16.1h-5.5v-14.3
		c0-2.2-1-3.3-3.1-3.3c-1.5,0-3.2,0.8-5.1,2.4c-0.5,1.5-0.5,3.1-0.5,4.9V605.7z"/>
	<path class="st0" d="M742.2,601.4c0.1-0.8,0.1-1.6,0.2-2.3h5v0.6c0,4.6-2.8,6.6-9.1,6.6c-6.7,0-10.5-2.9-10.5-11.2
		c0-7.6,3.6-12.1,10.8-12.1c6.2,0,9.1,3.5,9.1,9.5c0,1-0.1,2.1-0.2,3.2h-14.2c0.2,3.6,1.3,6.3,5.6,6.3
		C740.1,601.9,741.3,601.7,742.2,601.4z M734.1,587.4c-0.7,2.1-0.9,4.4-0.9,6.4c2.8-0.8,5.9-1.2,9.2-1.3c0-4-1.2-5.5-4.6-5.5
		C736.5,587,735.3,587.1,734.1,587.4z"/>
	<path class="st0" d="M771,604.9v8.7h-5.5v-30.1h5.5v4.4c2.7-2.7,5.5-4.9,8.8-4.9c3.9,0,6.1,3.1,6.1,10.9c0,8.8-4.1,12.1-9.4,12.1
		C774.6,606.1,772.8,605.7,771,604.9z M779.8,600.9c0.5-2.1,0.6-3.8,0.6-6.2c0-5.4-1.2-6.7-3.7-6.7c-1.4,0-3.3,0.7-5,2.1
		c-0.5,1.4-0.6,2.9-0.6,4.6v6.7c1.4,0.1,2.7,0.2,3.8,0.2C776.5,601.7,778.1,601.5,779.8,600.9z"/>
	<path class="st0" d="M791.6,579.2v-5.3h6v5.3H791.6z M791.9,605.7v-22.2h5.5v22.2H791.9z"/>
	<path class="st0" d="M817.7,601.4c0.1-0.8,0.1-1.6,0.2-2.3h5v0.6c0,4.6-2.8,6.6-9.1,6.6c-6.7,0-10.5-2.9-10.5-11.2
		c0-7.6,3.6-12.1,10.8-12.1c6.2,0,9.1,3.5,9.1,9.5c0,1-0.1,2.1-0.2,3.2h-14.2c0.2,3.6,1.3,6.3,5.6,6.3
		C815.6,601.9,816.8,601.7,817.7,601.4z M809.7,587.4c-0.7,2.1-0.9,4.4-0.9,6.4c2.8-0.8,5.9-1.2,9.2-1.3c0-4-1.2-5.5-4.6-5.5
		C812,587,810.8,587.1,809.7,587.4z"/>
	<path class="st0" d="M842.7,601.3c0.1-1,0.2-2,0.2-2.8h5.3c0.2,5.2-2.5,7.7-9,7.7c-6.7,0-10.7-2.5-10.7-11.2
		c0-7.6,3.6-12.1,11-12.1c6.4,0,8.9,3.5,8.6,9.9h-5.3c0-4.1-0.8-5.2-4-5.2c-1.4,0-2.7,0.1-3.8,0.4c-0.7,2.1-0.9,4.3-0.9,6.3
		c0,4.1,0.7,7.4,5.3,7.4C840.7,601.6,841.6,601.6,842.7,601.3z"/>
	<path class="st0" d="M867.5,601.4c0.1-0.8,0.1-1.6,0.2-2.3h5v0.6c0,4.6-2.8,6.6-9.1,6.6c-6.7,0-10.5-2.9-10.5-11.2
		c0-7.6,3.6-12.1,10.8-12.1c6.2,0,9.1,3.5,9.1,9.5c0,1-0.1,2.1-0.2,3.2h-14.2c0.2,3.6,1.3,6.3,5.6,6.3
		C865.4,601.9,866.6,601.7,867.5,601.4z M859.5,587.4c-0.7,2.1-0.9,4.4-0.9,6.4c2.8-0.8,5.9-1.2,9.2-1.3c0-4-1.2-5.5-4.6-5.5
		C861.8,587,860.6,587.1,859.5,587.4z"/>
	<path class="st0" d="M878.5,599h5.1c0,2.6,1.3,3.3,4.6,3.3c1.4,0,2.7-0.1,3.8-0.5c0-0.3,0.1-0.8,0.1-1.3c0-1.6-0.5-2.7-5.3-3.6
		c-6.1-1.2-7.9-3.1-7.9-7c0-4.5,3.2-6.9,9.4-6.9c6.2,0,8.5,2.2,8.2,7.1h-5.1c0-2.4-0.8-3.1-3.8-3.1c-1.4,0-2.6,0.1-3.7,0.5
		c-0.1,0.6-0.1,1-0.1,1.5c0,1.5,0.5,2.6,4.6,3.5c7.4,1.7,8.7,4,8.7,7.3c0,4.2-3.1,6.5-9.3,6.5C880.8,606.2,878.2,604.1,878.5,599z"
		/>
	<path class="st0" d="M909.3,599.6v6.1h-6.3v-6.1H909.3z M903.5,595.2v-17.9h5.5v17.9H903.5z"/>
</g>
</svg>
