<?xml version="1.0" encoding="utf-8"?>
<!-- Generator: Adobe Illustrator 23.0.3, SVG Export Plug-In . SVG Version: 6.00 Build 0)  -->
<svg version="1.1" id="Layer_1" xmlns="http://www.w3.org/2000/svg" xmlns:xlink="http://www.w3.org/1999/xlink" x="0px" y="0px"
	 viewBox="0 0 1290 720" style="enable-background:new 0 0 1290 720;" xml:space="preserve">
<style type="text/css">
	.st0{fill:#F2F2F2;}
</style>
<title>Asset 1</title>
<g>
	<path class="st0" d="M385.8,605.7v-8.6l-10.2-19.9h6.6l6.2,15.3h0.6l6.4-15.3h6.4l-10.2,19.9v8.6H385.8z"/>
	<path class="st0" d="M413.1,582.9c6.6,0,10.7,2.7,10.7,11.3c0,7.4-3.6,12-10.8,12c-6.7,0-10.9-2.7-10.9-11.1
		C402.1,587.4,406,582.9,413.1,582.9z M408.4,588c-0.5,2.3-0.8,4.9-0.8,7c0,3.7,0.9,6.7,5.9,6.7c1.2,0,2.5-0.1,3.9-0.6
		c0.5-1.9,0.8-4,0.8-6.4c0-4.8-0.7-7.3-5.5-7.3C411.4,587.4,409.8,587.6,408.4,588z"/>
	<path class="st0" d="M444.2,601.2c-2.6,2.9-5.1,4.9-8.6,4.9c-2.8,0-5.6-1.9-5.6-6.6v-16.1h5.5v14.3c0,2.2,1,3.3,3.1,3.3
		c1.5,0,3.2-0.8,5.1-2.4c0.5-1.5,0.5-3.1,0.5-4.9v-10.3h5.5v22.2h-5.5V601.2z"/>
	<path class="st0" d="M481.2,601.3c0.1-1,0.2-2,0.2-2.8h5.3c0.2,5.2-2.5,7.7-9,7.7c-6.7,0-10.7-2.5-10.7-11.2
		c0-7.6,3.6-12.1,11-12.1c6.4,0,8.9,3.5,8.6,9.9h-5.3c0-4.1-0.8-5.2-4-5.2c-1.4,0-2.7,0.1-3.8,0.4c-0.7,2.1-0.9,4.3-0.9,6.3
		c0,4.1,0.7,7.4,5.3,7.4C479.2,601.6,480.2,601.6,481.2,601.3z"/>
	<path class="st0" d="M505.3,602.1c-2.3,2.5-4.6,4.1-7.8,4.1c-3.4,0-6.2-1.6-6.2-6.2c0-3.6,1.8-6.3,7.8-6.3h5.9v-2.7
		c0-2.6-1-4-3.6-4c-0.9,0-2.2,0.1-3.3,0.3c-0.1,0.8-0.1,1.5-0.1,2.2v1h-5.5c0-0.3,0-0.6,0-0.9c0-4.5,3.3-6.8,9.4-6.8
		c5.6,0,8.6,2,8.6,6.9v10c0,1.2,0.2,1.8,1.5,1.8c0.4,0,0.9,0,1.3-0.1v4.3c-0.6,0.1-1.5,0.2-2.7,0.2
		C507.9,606.1,506,605.2,505.3,602.1z M504.6,600.5c0.4-1.5,0.6-3.1,0.6-4.9v-0.1c-2.1,1-5.8,0.9-8.1,1.4c-0.1,0.8-0.2,1.6-0.2,2.2
		c0,1.9,0.6,2.7,3.1,2.7C501.4,601.7,503.1,601.3,504.6,600.5z"/>
	<path class="st0" d="M524.1,605.7h-5.5v-22.2h5.5v4.5c2.6-2.9,5.1-4.9,8.6-4.9c2.8,0,5.6,1.9,5.6,6.6v16.1h-5.5v-14.3
		c0-2.2-1-3.3-3.1-3.3c-1.5,0-3.2,0.8-5.1,2.4c-0.5,1.5-0.5,3.1-0.5,4.9V605.7z"/>
	<path class="st0" d="M562.5,605.7H557v-22.2h5.5v4.5c2.6-2.9,5.1-4.9,8.6-4.9c2.5,0,4.9,1.5,5.5,5.1c2.7-2.9,5.2-5.1,8.7-5.1
		c2.8,0,5.6,1.9,5.6,6.6v16.1h-5.5v-14.3c0-2.2-0.9-3.3-3-3.3c-1.5,0-3.3,0.8-5.2,2.4c-0.4,1.5-0.5,3.2-0.5,4.9v10.3h-5.5v-14.3
		c0-2.2-1-3.3-3.1-3.3c-1.5,0-3.2,0.8-5.1,2.4c-0.5,1.5-0.5,3.1-0.5,4.9V605.7z"/>
	<path class="st0" d="M608.1,582.9c6.6,0,10.7,2.7,10.7,11.3c0,7.4-3.6,12-10.8,12c-6.7,0-10.9-2.7-10.9-11.1
		C597.2,587.4,601.1,582.9,608.1,582.9z M603.4,588c-0.5,2.3-0.8,4.9-0.8,7c0,3.7,0.9,6.7,5.9,6.7c1.2,0,2.5-0.1,3.9-0.6
		c0.5-1.9,0.8-4,0.8-6.4c0-4.8-0.7-7.3-5.5-7.3C606.4,587.4,604.8,587.6,603.4,588z"/>
	<path class="st0" d="M628.9,605.7l-7.2-22.2h6l2.4,8.5c0.9,3.2,1.7,6,2.2,9.1h1.8c0.6-3.1,1.2-6,2.1-9.1l2.4-8.5h5.9l-7.2,22.2
		H628.9z"/>
	<path class="st0" d="M661.9,601.4c0.1-0.8,0.1-1.6,0.2-2.3h5v0.6c0,4.6-2.8,6.6-9.1,6.6c-6.7,0-10.5-2.9-10.5-11.2
		c0-7.6,3.6-12.1,10.8-12.1c6.2,0,9.1,3.5,9.1,9.5c0,1-0.1,2.1-0.2,3.2H653c0.2,3.6,1.3,6.3,5.6,6.3
		C659.8,601.9,661,601.7,661.9,601.4z M653.9,587.4c-0.7,2.1-0.9,4.4-0.9,6.4c2.8-0.8,5.9-1.2,9.2-1.3c0-4-1.2-5.5-4.6-5.5
		C656.2,587,655,587.1,653.9,587.4z"/>
	<path class="st0" d="M691.9,583.5h8.7v4.6c-2.8,0-6-0.2-8.7-0.9v10.7c0,2.2,0.4,3.7,2.9,3.7c0.6,0,1.2,0,1.7-0.1
		c0.4-1.1,0.5-2.5,0.5-3.4h4.8c0,5.3-2.3,8-8,8c-4.4,0-7.4-1.6-7.4-7.3v-11h-3.6v-4.4h3.6v-5.4h5.5V583.5z"/>
	<path class="st0" d="M712.5,605.7H707v-31.8h5.5v14c2.6-2.9,5.1-4.9,8.6-4.9c2.8,0,5.6,1.9,5.6,6.6v16.1h-5.5v-14.3
		c0-2.2-1-3.3-3.1-3.3c-1.5,0-3.2,0.8-5.1,2.4c-0.5,1.5-0.5,3.1-0.5,4.9V605.7z"/>
	<path class="st0" d="M747.3,601.4c0.1-0.8,0.1-1.6,0.2-2.3h5v0.6c0,4.6-2.8,6.6-9.1,6.6c-6.7,0-10.5-2.9-10.5-11.2
		c0-7.6,3.6-12.1,10.8-12.1c6.2,0,9.1,3.5,9.1,9.5c0,1-0.1,2.1-0.2,3.2h-14.2c0.2,3.6,1.3,6.3,5.6,6.3
		C745.2,601.9,746.4,601.7,747.3,601.4z M739.3,587.4c-0.7,2.1-0.9,4.4-0.9,6.4c2.8-0.8,5.9-1.2,9.2-1.3c0-4-1.2-5.5-4.6-5.5
		C741.6,587,740.4,587.1,739.3,587.4z"/>
	<path class="st0" d="M776.1,604.9v8.7h-5.5v-30.1h5.5v4.4c2.7-2.7,5.5-4.9,8.8-4.9c3.9,0,6.1,3.1,6.1,10.9c0,8.8-4.1,12.1-9.4,12.1
		C779.7,606.1,777.9,605.7,776.1,604.9z M784.9,600.9c0.5-2.1,0.6-3.8,0.6-6.2c0-5.4-1.2-6.7-3.7-6.7c-1.4,0-3.3,0.7-5,2.1
		c-0.5,1.4-0.6,2.9-0.6,4.6v6.7c1.4,0.1,2.7,0.2,3.8,0.2C781.6,601.7,783.2,601.5,784.9,600.9z"/>
	<path class="st0" d="M796.7,579.2v-5.3h6v5.3H796.7z M797,605.7v-22.2h5.5v22.2H797z"/>
	<path class="st0" d="M822.9,601.4c0.1-0.8,0.1-1.6,0.2-2.3h5v0.6c0,4.6-2.8,6.6-9.1,6.6c-6.7,0-10.5-2.9-10.5-11.2
		c0-7.6,3.6-12.1,10.8-12.1c6.2,0,9.1,3.5,9.1,9.5c0,1-0.1,2.1-0.2,3.2h-14.2c0.2,3.6,1.3,6.3,5.6,6.3
		C820.7,601.9,821.9,601.7,822.9,601.4z M814.8,587.4c-0.7,2.1-0.9,4.4-0.9,6.4c2.8-0.8,5.9-1.2,9.2-1.3c0-4-1.2-5.5-4.6-5.5
		C817.1,587,815.9,587.1,814.8,587.4z"/>
	<path class="st0" d="M847.8,601.3c0.1-1,0.2-2,0.2-2.8h5.3c0.2,5.2-2.5,7.7-9,7.7c-6.7,0-10.7-2.5-10.7-11.2
		c0-7.6,3.6-12.1,11-12.1c6.4,0,8.9,3.5,8.6,9.9h-5.3c0-4.1-0.8-5.2-4-5.2c-1.4,0-2.7,0.1-3.8,0.4c-0.7,2.1-0.9,4.3-0.9,6.3
		c0,4.1,0.7,7.4,5.3,7.4C845.8,601.6,846.7,601.6,847.8,601.3z"/>
	<path class="st0" d="M872.7,601.4c0.1-0.8,0.1-1.6,0.2-2.3h5v0.6c0,4.6-2.8,6.6-9.1,6.6c-6.7,0-10.5-2.9-10.5-11.2
		c0-7.6,3.6-12.1,10.8-12.1c6.2,0,9.1,3.5,9.1,9.5c0,1-0.1,2.1-0.2,3.2h-14.2c0.2,3.6,1.3,6.3,5.6,6.3
		C870.5,601.9,871.7,601.7,872.7,601.4z M864.6,587.4c-0.7,2.1-0.9,4.4-0.9,6.4c2.8-0.8,5.9-1.2,9.2-1.3c0-4-1.2-5.5-4.6-5.5
		C866.9,587,865.7,587.1,864.6,587.4z"/>
	<path class="st0" d="M883.6,599h5.1c0,2.6,1.3,3.3,4.6,3.3c1.4,0,2.7-0.1,3.8-0.5c0-0.3,0.1-0.8,0.1-1.3c0-1.6-0.5-2.7-5.3-3.6
		c-6.1-1.2-7.9-3.1-7.9-7c0-4.5,3.2-6.9,9.4-6.9c6.2,0,8.5,2.2,8.2,7.1h-5.1c0-2.4-0.8-3.1-3.8-3.1c-1.4,0-2.6,0.1-3.7,0.5
		c-0.1,0.6-0.1,1-0.1,1.5c0,1.5,0.5,2.6,4.6,3.5c7.4,1.7,8.7,4,8.7,7.3c0,4.2-3.1,6.5-9.3,6.5C885.9,606.2,883.3,604.1,883.6,599z"
		/>
	<path class="st0" d="M914.5,599.6v6.1h-6.3v-6.1H914.5z M908.6,595.2v-17.9h5.5v17.9H908.6z"/>
</g>
</svg>
