<?xml version="1.0" encoding="utf-8"?>
<!-- Generator: Adobe Illustrator 23.0.3, SVG Export Plug-In . SVG Version: 6.00 Build 0)  -->
<svg version="1.1" id="Layer_1" xmlns="http://www.w3.org/2000/svg" xmlns:xlink="http://www.w3.org/1999/xlink" x="0px" y="0px"
	 viewBox="0 0 720 662.4" style="enable-background:new 0 0 720 662.4;" xml:space="preserve">
<style type="text/css">
	.st0{fill:#F2F2F2;}
</style>
<title>Asset 1</title>
<path d="M80-0.5h560c44.2,0,80,35.8,80,80v503c0,44.2-35.8,80-80,80H80c-44.2,0-80-35.8-80-80v-503C0,35.3,35.8-0.5,80-0.5z"/>
<g>
	<path class="st0" d="M646.3,337.3H538.5v36.6c23.6-0.1,47.2-2.7,70.3-7.8c1,18,0.5,46.4-4.9,69.8c-22,9.3-47.8,11.7-69.8,11.7
		c-71.2,0-95.6-40-95.6-113.2c0-34.6,4.4-73.2,22-109.8c21.8-7.6,44.7-11.6,67.8-11.8c60,0,77.1,15.1,77.1,66.4h41
		c2.9-71.2-37.1-100-111.3-100c-94.2,0-136.6,57.6-136.6,162.5c0,106.9,49.3,140.5,129.8,140.5c76.1,0,120-36.6,120-109.8
		C648.3,360.2,647.8,347.5,646.3,337.3z"/>
	<path class="st0" d="M309.6,299.9c32.8-1.5,58.5-30,54.1-61.4c-4.8-29-28.5-49.3-57-48.3c-29,1-51.7,24.6-52.7,54.1v27.5h-63.3
		c-3.2,0.1-6.5-0.1-9.7-0.5c0-13.5,0-16.4-0.5-29c-1.5-40.6-44.9-64.7-80.7-45.4c-20.8,11.6-31.9,36.2-27,59.4
		c6.3,25.1,26.1,43,52.2,43.5c12.1,0.5,15,0.5,27.5,0.5v72.9h-28.5c-33.3,1.5-58,32.4-51.2,64.7c5.8,28.5,30.4,46.9,58.9,44.4
		c27.5-2.9,48.8-25.6,49.3-54.6v-26.1H254v27c1,35.3,33.8,60.9,68.1,52.2c26.1-6.8,44.4-32.4,41.5-58.5c-3.4-28-25.1-48.3-53.1-49.3
		h-28v-72.9C295.6,300.4,297.5,300.4,309.6,299.9z M149.2,447.8c-4.4,4.8-12.1,7.2-23.2,7.2c-3.4,0.1-6.8-0.1-10.1-0.5
		c-3.4-0.3-6.7-1.3-9.7-2.9c-2.9-3.9-4.4-8.7-5.3-13c-1-4.4-1.4-9-1.5-13.5c0-8.7,1.9-15,6.8-20.3c4.4-4.8,11.6-7.2,22.7-7.2
		c3.4-0.1,6.8,0.1,10.1,0.5c3.4,0.6,6.8,1.4,10.1,2.4c2.4,4.8,4.3,9.2,4.8,14c0.5,4.3,1.5,8.7,1.5,13
		C155.5,436.2,153.5,442.9,149.2,447.8z M154,257.9c-0.5,4.8-2.4,9.2-4.8,14c-3.3,1-6.7,1.8-10.1,2.4c-3.4,0.4-6.8,0.6-10.1,0.5
		c-11.1,0-18.4-2.4-22.7-7.2c-4.8-5.3-6.8-11.6-6.8-20.3c0-4.5,0.5-9.1,1.5-13.5c1-4.4,2.4-9.2,5.3-13c3-1.6,6.3-2.6,9.7-2.9
		c3.4-0.4,6.8-0.6,10.1-0.5c11.1,0,18.8,2.4,23.2,7.2c4.3,4.8,6.3,11.6,6.3,20.3C155.5,249.2,154.5,253.6,154,257.9L154,257.9z
		 M253.5,355l1.5,18.8c-6.3-0.5-12.6-1-18.4-1.5c-7.2-0.5-13.5-0.5-19.3-0.5s-12.6,0-19.3,0.5c-5.8,0.5-12.6,1-18.4,1.5l1.5-18.8
		c0.5-5.8,0.5-11.6,0.5-18.4c0-6.3,0-12.1-0.5-17.9l-1.5-18.8c5.8,0.5,12.6,0.5,18.4,1c6.8,0.5,13.5,1,19.3,1s12.1-0.5,19.3-1
		c5.8-0.5,12.1-0.5,18.4-1l-1.5,18.8c-0.5,5.8-0.5,11.6-0.5,17.9C253,343.4,253,349.2,253.5,355z M286.4,400.4
		c3.3-1,6.7-1.8,10.2-2.4c3.4-0.4,6.8-0.6,10.1-0.5c11.1,0,18.4,2.4,22.7,7.2c4.8,5.3,6.8,11.6,6.8,20.3c0,4.5-0.5,9.1-1.5,13.5
		c-1,4.4-2.4,9.2-5.3,13c-3,1.6-6.3,2.6-9.7,2.9c-3.4,0.4-6.8,0.6-10.1,0.5c-11.1,0-18.8-2.4-23.2-7.2c-4.3-4.8-6.3-11.6-6.3-20.3
		c0-4.4,1-8.7,1.5-13C282,409.6,284,405.3,286.4,400.4z M281.5,257.9c-0.5-4.4-1.5-8.7-1.5-13c0-8.7,1.9-15.5,6.3-20.3
		s12.1-7.2,23.2-7.2c3.4-0.1,6.8,0.1,10.1,0.5c3.4,0.3,6.7,1.3,9.7,2.9c2.9,3.9,4.3,8.7,5.3,13c1,4.5,1.4,9,1.5,13.6
		c0,8.7-1.9,15-6.8,20.3c-4.3,4.8-11.6,7.2-22.7,7.2c-3.4,0.1-6.8-0.1-10.1-0.5c-3.4-0.6-6.8-1.4-10.2-2.4
		C284,267.1,282,262.7,281.5,257.9L281.5,257.9z"/>
</g>
</svg>
