<?xml version="1.0" encoding="utf-8"?>
<!-- Generator: Adobe Illustrator 23.0.3, SVG Export Plug-In . SVG Version: 6.00 Build 0)  -->
<svg version="1.1" id="Layer_1" xmlns="http://www.w3.org/2000/svg" xmlns:xlink="http://www.w3.org/1999/xlink" x="0px" y="0px"
	 viewBox="0 0 720 720" style="enable-background:new 0 0 720 720;" xml:space="preserve">
<style type="text/css">
	.st0{fill:#F2F2F2;}
</style>
<path d="M597,720H123C55.1,720,0,664.9,0,597V123C0,55.1,55.1,0,123,0H597c67.9,0,123,55.1,123,123V597C720,664.9,664.9,720,597,720
	z"/>
<title>Asset 1</title>
<g>
	<path class="st0" d="M623.7,365.9h-99.3v33.7c21.7-0.1,43.5-2.5,64.7-7.2c0.9,16.6,0.5,42.7-4.5,64.3c-20.3,8.6-44,10.8-64.3,10.8
		c-65.6,0-88-36.8-88-104.2c0-31.9,4.1-67.4,20.3-101.1c20.1-7,41.2-10.7,62.4-10.9c55.2,0,71,13.9,71,61.1h37.8
		c2.7-65.6-34.2-92.1-102.5-92.1c-86.7,0-125.8,53-125.8,149.6c0,98.4,45.4,129.4,119.5,129.4c70.1,0,110.5-33.7,110.5-101.1
		C625.5,387,625,375.3,623.7,365.9z"/>
	<path class="st0" d="M313.6,331.5c30.2-1.4,53.9-27.6,49.8-56.5c-4.4-26.7-26.2-45.4-52.5-44.5c-26.7,0.9-47.6,22.7-48.5,49.8v25.3
		h-58.3c-2.9,0.1-6-0.1-8.9-0.5c0-12.4,0-15.1-0.5-26.7c-1.4-37.4-41.3-59.6-74.3-41.8C101.3,247.3,91,270,95.6,291.3
		c5.8,23.1,24,39.6,48.1,40.1c11.1,0.5,13.8,0.5,25.3,0.5V399h-26.2c-30.7,1.4-53.4,29.8-47.1,59.6c5.3,26.2,28,43.2,54.2,40.9
		c25.3-2.7,44.9-23.6,45.4-50.3v-24h67.2V450c0.9,32.5,31.1,56.1,62.7,48.1c24-6.3,40.9-29.8,38.2-53.9
		c-3.1-25.8-23.1-44.5-48.9-45.4h-25.8v-67.1C300.7,331.9,302.5,331.9,313.6,331.5z M165.9,467.7c-4.1,4.4-11.1,6.6-21.4,6.6
		c-3.1,0.1-6.3-0.1-9.3-0.5c-3.1-0.3-6.2-1.2-8.9-2.7c-2.7-3.6-4.1-8-4.9-12c-0.9-4.1-1.3-8.3-1.4-12.4c0-8,1.7-13.8,6.3-18.7
		c4.1-4.4,10.7-6.6,20.9-6.6c3.1-0.1,6.3,0.1,9.3,0.5c3.1,0.6,6.3,1.3,9.3,2.2c2.2,4.4,4,8.5,4.4,12.9c0.5,4,1.4,8,1.4,12
		C171.7,457,169.9,463.2,165.9,467.7z M170.3,292.8c-0.5,4.4-2.2,8.5-4.4,12.9c-3,0.9-6.2,1.7-9.3,2.2c-3.1,0.4-6.3,0.6-9.3,0.5
		c-10.2,0-16.9-2.2-20.9-6.6c-4.4-4.9-6.3-10.7-6.3-18.7c0-4.1,0.5-8.4,1.4-12.4c0.9-4.1,2.2-8.5,4.9-12c2.8-1.5,5.8-2.4,8.9-2.7
		c3.1-0.4,6.3-0.6,9.3-0.5c10.2,0,17.3,2.2,21.4,6.6c4,4.4,5.8,10.7,5.8,18.7C171.7,284.8,170.8,288.9,170.3,292.8L170.3,292.8z
		 M262,382.2l1.4,17.3c-5.8-0.5-11.6-0.9-16.9-1.4c-6.6-0.5-12.4-0.5-17.8-0.5s-11.6,0-17.8,0.5c-5.3,0.5-11.6,0.9-16.9,1.4
		l1.4-17.3c0.5-5.3,0.5-10.7,0.5-16.9c0-5.8,0-11.1-0.5-16.5l-1.4-17.3c5.3,0.5,11.6,0.5,16.9,0.9c6.3,0.5,12.4,0.9,17.8,0.9
		s11.1-0.5,17.8-0.9c5.3-0.5,11.1-0.5,16.9-0.9l-1.4,17.3c-0.5,5.3-0.5,10.7-0.5,16.5C261.5,371.5,261.5,376.9,262,382.2z
		 M292.2,424c3-0.9,6.2-1.7,9.4-2.2c3.1-0.4,6.3-0.6,9.3-0.5c10.2,0,16.9,2.2,20.9,6.6c4.4,4.9,6.3,10.7,6.3,18.7
		c0,4.1-0.5,8.4-1.4,12.4c-0.9,4.1-2.2,8.5-4.9,12c-2.8,1.5-5.8,2.4-8.9,2.7c-3.1,0.4-6.3,0.6-9.3,0.5c-10.2,0-17.3-2.2-21.4-6.6
		c-4-4.4-5.8-10.7-5.8-18.7c0-4.1,0.9-8,1.4-12C288.2,432.5,290,428.5,292.2,424z M287.7,292.8c-0.5-4.1-1.4-8-1.4-12
		c0-8,1.7-14.3,5.8-18.7c4.1-4.4,11.1-6.6,21.4-6.6c3.1-0.1,6.3,0.1,9.3,0.5c3.1,0.3,6.2,1.2,8.9,2.7c2.7,3.6,4,8,4.9,12
		c0.9,4.1,1.3,8.3,1.4,12.5c0,8-1.7,13.8-6.3,18.7c-4,4.4-10.7,6.6-20.9,6.6c-3.1,0.1-6.3-0.1-9.3-0.5c-3.1-0.6-6.3-1.3-9.4-2.2
		C290,301.3,288.2,297.2,287.7,292.8L287.7,292.8z"/>
</g>
</svg>
